<svg width="35" height="35" viewBox="0 0 35 35" fill="none" xmlns="http://www.w3.org/2000/svg">
<path d="M34.2929 4.23211C34.6834 3.84158 34.6834 3.20842 34.2929 2.81789L32.1821 0.707106C31.7916 0.316582 31.1584 0.316583 30.7679 0.707107L18.2071 13.2679C17.8166 13.6584 17.1834 13.6584 16.7929 13.2679L4.23211 0.707107C3.84158 0.316583 3.20842 0.316583 2.81789 0.707107L0.707106 2.81789C0.316582 3.20842 0.316583 3.84158 0.707107 4.23211L13.2679 16.7929C13.6584 17.1834 13.6584 17.8166 13.2679 18.2071L0.707107 30.7679C0.316583 31.1584 0.316583 31.7916 0.707107 32.1821L2.81789 34.2929C3.20842 34.6834 3.84158 34.6834 4.23211 34.2929L16.7929 21.7321C17.1834 21.3416 17.8166 21.3416 18.2071 21.7321L30.7679 34.2929C31.1584 34.6834 31.7916 34.6834 32.1821 34.2929L34.2929 32.1821C34.6834 31.7916 34.6834 31.1584 34.2929 30.7679L21.7321 18.2071C21.3416 17.8166 21.3416 17.1834 21.7321 16.7929L34.2929 4.23211Z" fill="url(#paint0_linear_45_249)"/>
<defs>
<linearGradient id="paint0_linear_45_249" x1="19.6212" y1="10.0758" x2="17.5" y2="35" gradientUnits="userSpaceOnUse">
<stop offset="0.229167" stop-color="#F01B68"/>
<stop offset="1" stop-color="#E78716"/>
</linearGradient>
</defs>
</svg>
