<svg width="24" height="37" viewBox="0 0 24 37" fill="none" xmlns="http://www.w3.org/2000/svg">
<path d="M0.878906 10.4141H6.61621C6.81152 7.38672 8.83789 5.45801 11.9873 5.45801C15.0635 5.45801 17.1143 7.33789 17.1143 9.92578C17.1143 12.3428 16.0889 13.6611 13.0615 15.4922C9.69238 17.4697 8.27637 19.667 8.49609 23.2803L8.52051 25.0137H14.1846V23.5977C14.1846 21.1562 15.0879 19.8867 18.2861 18.0312C21.6064 16.0537 23.4619 13.4414 23.4619 9.70605C23.4619 4.33496 18.9941 0.477539 12.3047 0.477539C5.05371 0.477539 1.07422 4.67676 0.878906 10.4141ZM11.4258 36.4883C13.4033 36.4883 14.9658 34.9502 14.9658 33.0215C14.9658 31.0928 13.4033 29.5791 11.4258 29.5791C9.44824 29.5791 7.86133 31.0928 7.86133 33.0215C7.86133 34.9502 9.44824 36.4883 11.4258 36.4883Z" fill="url(#paint0_linear_45_314)"/>
<defs>
<linearGradient id="paint0_linear_45_314" x1="-11.5" y1="33" x2="13" y2="2.5" gradientUnits="userSpaceOnUse">
<stop offset="0.328574" stop-color="#3445E1"/>
<stop offset="1" stop-color="#40BAFF"/>
</linearGradient>
</defs>
</svg>
